<svg width="40" height="39" viewBox="0 0 40 39" fill="none" xmlns="http://www.w3.org/2000/svg">
<path d="M20.2318 0.0253296C9.5228 0.0253296 0.81012 8.73801 0.81012 19.447C0.81012 30.156 9.5228 38.8687 20.2318 38.8687C30.9408 38.8687 39.6535 30.156 39.6535 19.447C39.6535 8.73801 30.9408 0.0253296 20.2318 0.0253296ZM27.2059 23.632C26.4122 24.5994 23.4999 27.225 20.2318 29.5621C16.9637 27.2278 14.0514 24.5994 13.2577 23.632C11.3903 21.3565 10.4957 19.0194 10.5219 16.4889C10.5508 13.5888 12.8768 11.2292 15.7069 11.2292C17.7611 11.2292 19.1897 12.388 20.0198 13.3544L20.2318 13.6112L20.4438 13.3544C21.2589 12.3777 22.6987 11.2301 24.7567 11.2301C27.5868 11.2301 29.9128 13.5897 29.9417 16.4899C29.9678 19.0194 29.0724 21.3565 27.2059 23.632Z" fill="white"/>
</svg>
