<svg width="31" height="27" viewBox="0 0 31 27" fill="none" xmlns="http://www.w3.org/2000/svg">
<path d="M24.7334 2.37399C24.4877 1.67966 24.0328 1.07856 23.4314 0.65342C22.8299 0.22828 22.1115 0 21.375 0C20.6385 0 19.9201 0.22828 19.3186 0.65342C18.7172 1.07856 18.2623 1.67966 18.0166 2.37399H0V4.74899H18.0166C18.2623 5.44331 18.7172 6.04441 19.3186 6.46955C19.9201 6.89469 20.6385 7.12297 21.375 7.12297C22.1115 7.12297 22.8299 6.89469 23.4314 6.46955C24.0328 6.04441 24.4877 5.44331 24.7334 4.74899H30.875V2.37399H24.7334Z" fill="black"/>
<path d="M9.5 9.49896C8.76359 9.50001 8.04552 9.72882 7.44427 10.154C6.84301 10.5792 6.38799 11.18 6.1416 11.874H0V14.249H6.1416C6.38732 14.9433 6.8422 15.5444 7.44363 15.9695C8.04506 16.3947 8.76348 16.6229 9.5 16.6229C10.2365 16.6229 10.9549 16.3947 11.5564 15.9695C12.1578 15.5444 12.6127 14.9433 12.8584 14.249H30.875V11.874H12.8584C12.612 11.18 12.157 10.5792 11.5557 10.154C10.9545 9.72882 10.2364 9.50001 9.5 9.49896Z" fill="black"/>
<path d="M21.375 18.999C20.6386 19 19.9205 19.2288 19.3193 19.654C18.718 20.0792 18.263 20.68 18.0166 21.374H0V23.749H18.0166C18.2623 24.4433 18.7172 25.0444 19.3186 25.4695C19.9201 25.8947 20.6385 26.1229 21.375 26.1229C22.1115 26.1229 22.8299 25.8947 23.4314 25.4695C24.0328 25.0444 24.4877 24.4433 24.7334 23.749H30.875V21.374H24.7334C24.487 20.68 24.032 20.0792 23.4307 19.654C22.8295 19.2288 22.1114 19 21.375 18.999Z" fill="black"/>
</svg>
